<svg width="282" height="74" viewBox="0 0 282 74" fill="none" xmlns="http://www.w3.org/2000/svg">
<path d="M89.6055 43.1855C89.793 43.1621 89.9277 43.1328 90.0098 43.0977V42.7812L89.7109 42.5352C89.6875 42.2773 89.6523 41.9844 89.6055 41.6562C89.5938 41.5859 89.5879 41.5156 89.5879 41.4453C89.5879 41.2227 89.7168 40.9648 89.9746 40.6719L89.9219 40.6191C89.8984 40.4199 89.834 40.2617 89.7285 40.1445C89.6582 40.0625 89.5996 39.9219 89.5527 39.7227C89.4707 39.3594 89.4297 39.084 89.4297 38.8965L89.5527 37.5078V36.7168V36.2949L89.7988 36.0137C89.5527 35.9316 89.4297 35.873 89.4297 35.8379C89.5 34.9473 89.5352 34.4961 89.5352 34.4844C89.5352 34.3203 89.4941 33.9277 89.4121 33.3066L89.4824 33.2363L89.4297 32.3574C89.5703 32.2754 89.7285 32.2168 89.9043 32.1816C89.998 32.1582 90.0977 32.1113 90.2031 32.041C90.1562 31.8535 90.0508 31.6895 89.8867 31.5488C89.9102 31.4434 89.9219 31.3672 89.9219 31.3203C89.9219 31.1914 89.8691 31.0215 89.7637 30.8105L89.4121 31.0391C89.2363 30.6406 89.1484 30.3301 89.1484 30.1074C89.1484 30.0254 89.1777 29.8555 89.2363 29.5977L89.2012 28.6133V28.1035L89.1309 27.752L89.1836 27.0137C89.0078 25.9238 88.9199 25.3262 88.9199 25.2207C88.9199 25.0566 88.9668 24.8867 89.0605 24.7109C89.1074 24.6172 89.1367 24.4707 89.1484 24.2715C89.2656 24.166 89.3242 24.0664 89.3242 23.9727V23.9375V23.8672L89.3945 23.4102L88.8848 23.4629C88.8848 23.2168 88.8438 22.9355 88.7617 22.6191L88.6914 22.1445C88.5742 21.4766 88.5156 20.9609 88.5156 20.5977C88.5156 20.3516 88.5508 20.082 88.6211 19.7891C88.4922 19.8242 88.2402 19.8477 87.8652 19.8594L86.9512 20.0527C86.916 20.0527 86.8457 20.0352 86.7402 20C86.916 19.5312 87.0156 19.2969 87.0391 19.2969C87.2969 19.1562 87.4785 19.0391 87.584 18.9453V18.8574C87.8184 18.8105 87.9707 18.7754 88.041 18.752C88.334 18.6699 88.5156 18.6289 88.5859 18.6289C88.6094 18.6289 88.7734 18.6582 89.0781 18.7168C89.1719 18.7402 89.2656 18.752 89.3594 18.752C89.5117 18.752 89.875 18.623 90.4492 18.3652C90.4961 18.3535 90.7539 18.3477 91.2227 18.3477C91.3164 18.3477 91.7207 18.3008 92.4355 18.207C92.4941 18.1953 92.5352 18.1895 92.5586 18.1895C92.7227 18.1895 92.9922 18.2422 93.3672 18.3477C93.5547 18.4062 93.7305 18.4355 93.8945 18.4355C93.9883 18.4355 94.2109 18.4062 94.5625 18.3477C94.7266 18.6406 94.8672 18.8047 94.9844 18.8398C95.0898 18.8633 95.2891 18.875 95.582 18.875L95.7051 18.6465C95.998 18.5762 96.2559 18.4707 96.4785 18.3301C97.0645 18.4004 97.5918 18.4414 98.0605 18.4531C98.6582 18.4766 99.3613 18.5645 100.17 18.7168H100.82L101.91 18.8398C102.18 18.8516 102.338 18.8633 102.385 18.875C102.514 18.9102 102.672 19.0156 102.859 19.1914C103.082 19.1562 103.246 19.1387 103.352 19.1387C103.586 19.1387 104.33 19.3789 105.584 19.8594C106.158 20.0352 106.486 20.1699 106.568 20.2637C106.803 20.5332 106.92 20.8965 106.92 21.3535C106.92 21.9043 106.609 22.6367 105.988 23.5508L105.496 24.3418C104.84 24.916 104.412 25.3379 104.213 25.6074H103.457L103.387 25.6602V26.2051C103.141 26.3457 102.982 26.4336 102.912 26.4688C102.314 26.8203 101.799 27.0664 101.365 27.207L100.732 27.5059C100.275 27.5879 100 27.6465 99.9062 27.6816C99.8125 27.7285 99.7012 27.8047 99.5723 27.9102C99.8066 28.0273 99.9883 28.0977 100.117 28.1211C100.141 28.1328 100.533 28.1621 101.295 28.209C101.623 28.2324 102.021 28.3262 102.49 28.4902C103.146 28.7129 103.645 28.8652 103.984 28.9473C104.242 28.9941 104.494 29.0879 104.74 29.2285C104.693 29.416 104.67 29.5801 104.67 29.7207C104.67 29.8965 104.828 30.0605 105.145 30.2129C105.238 30.1074 105.385 29.832 105.584 29.3867C105.854 29.3984 106.141 29.4629 106.445 29.5801C107.008 29.8027 107.389 29.9551 107.588 30.0371C107.717 30.0605 107.828 30.2246 107.922 30.5293L108.396 30.7402L108.449 30.9336L108.713 30.8105L108.889 31.0039C109.041 30.8516 109.188 30.7754 109.328 30.7754C109.598 30.7754 109.99 30.9395 110.506 31.2676C111.432 31.8652 112.094 32.3047 112.492 32.5859C112.68 32.7266 112.908 32.9668 113.178 33.3066C113.131 33.4121 113.107 33.4883 113.107 33.5352C113.107 33.6172 113.154 33.7285 113.248 33.8691C113.389 33.7285 113.506 33.6582 113.6 33.6582C113.646 33.6582 114.15 34.0098 115.111 34.7129L115.34 35.0469C115.574 35.1758 115.727 35.2637 115.797 35.3105C115.832 35.3457 115.984 35.5508 116.254 35.9258C116.605 36.3477 116.846 36.6758 116.975 36.9102C116.682 37.1562 116.535 37.3906 116.535 37.6133C116.535 37.6719 116.541 37.748 116.553 37.8418L117.15 37.7539C117.385 38.0703 117.561 38.3633 117.678 38.6328C117.736 38.7852 117.859 39.2305 118.047 39.9688C118.305 40.5312 118.439 40.9297 118.451 41.1641V41.1816L118.398 41.832V42.5176C118.387 42.752 118.176 43.0859 117.766 43.5195C117.777 43.6133 117.865 43.7012 118.029 43.7832C118.018 43.9238 118.012 44.0469 118.012 44.1523C118.012 44.2109 118.018 44.2695 118.029 44.3281C118.053 44.5156 118.064 44.6387 118.064 44.6973C118.064 44.7676 117.695 45.3066 116.957 46.3145L116.57 46.5957L116.166 46.9648C115.861 47.1641 115.68 47.2871 115.621 47.334C115.586 47.3809 115.48 47.5625 115.305 47.8789C115 48.2891 114.385 48.6758 113.459 49.0391L113.23 48.8281C112.879 48.8633 112.633 48.9102 112.492 48.9688C112.352 49.0391 112.188 49.2148 112 49.4961C112.246 49.5195 112.369 49.6191 112.369 49.7949C112.369 49.8652 112.334 49.9473 112.264 50.041C112.17 50.1699 111.713 50.3105 110.893 50.4629C110.646 50.5098 110.113 50.7207 109.293 51.0957C109.117 51.166 108.953 51.2305 108.801 51.2891C108.32 51.4648 108.039 51.5762 107.957 51.623C107.816 51.6934 107.717 51.7285 107.658 51.7285C107.588 51.7285 107.477 51.6758 107.324 51.5703L106.797 51.7461L106.639 52.0098C106.404 52.0566 106.252 52.0859 106.182 52.0977C105.83 52.1562 105.596 52.2148 105.479 52.2734C105.174 52.4492 105.021 52.5371 105.021 52.5371C104.564 52.4082 104.312 52.3438 104.266 52.3438C104.207 52.3438 104.084 52.4316 103.896 52.6074C103.838 52.6777 103.709 52.7246 103.51 52.748C103.018 52.8301 102.637 52.9473 102.367 53.0996L101.928 52.6953H101.822C101.682 52.6836 101.535 52.6543 101.383 52.6074L101.031 53.0996L97.5859 53.2051L96.8301 53.0117L96.9531 52.4844L96.4609 52.3789C96.332 52.5312 96.1562 52.6426 95.9336 52.7129C95.5586 52.8301 95.3418 52.8887 95.2832 52.8887C95.2715 52.8887 94.832 52.7891 93.9648 52.5898L93.666 52.4316L93.0684 52.4668C92.7871 52.3496 92.5293 52.2852 92.2949 52.2734C92.1426 52.2617 91.832 52.2383 91.3633 52.2031L90.8887 52.2559L90.2031 52.2031L88.6035 52.1328L88.5156 52.1152C87.9766 52.1855 87.6543 52.2207 87.5488 52.2207C86.9395 52.2207 86.6348 52.0859 86.6348 51.8164C86.6348 51.7695 86.6641 51.7227 86.7227 51.6758C86.9453 51.4648 87.1738 51.3125 87.4082 51.2188L88.7617 50.6914C88.8789 50.6445 88.9961 50.5215 89.1133 50.3223C89.207 50.1465 89.2539 50.0176 89.2539 49.9355L89.2188 49.4434L90.7656 49.0039L89.4824 48.6523C89.2949 48.6055 89.2012 48.4648 89.2012 48.2305C89.2012 48.1719 89.2773 47.9961 89.4297 47.7031L89.4473 46.7012V46.4199C89.4473 46.3145 89.3477 46.0508 89.1484 45.6289L90.8359 44.9082L89.1836 44.3809C89.3242 44.2168 89.4004 44.123 89.4121 44.0996C89.4473 44.0645 89.4766 43.9297 89.5 43.6953C89.5 43.6016 89.5352 43.4316 89.6055 43.1855ZM90.9941 23.498H91.0645L91.1699 23.4453C91.2871 23.6797 91.4395 23.8789 91.627 24.043V26.9961L91.5391 27.4883C91.832 27.5586 92.0254 27.6055 92.1191 27.6289C92.2129 27.6523 92.2832 27.6641 92.3301 27.6641L92.7344 27.6289H92.752C92.7637 27.6289 92.9688 27.6582 93.3672 27.7168C93.8594 27.7402 94.3633 27.7754 94.8789 27.8223C94.832 28.0098 94.8086 28.1621 94.8086 28.2793C94.8086 28.6543 94.8965 28.8418 95.0723 28.8418C95.1777 28.8418 95.4473 28.5488 95.8809 27.9629V27.6992L99.0801 27.0488C99.2207 27.0137 99.4785 26.873 99.8535 26.627L100.574 26.3809L101.189 25.959C102.057 25.4551 102.643 25.0625 102.947 24.7812C103.393 24.3477 103.627 24.0898 103.65 24.0078L103.967 23.1289C104.154 22.6367 104.248 22.3613 104.248 22.3027C104.248 22.1621 104.143 21.998 103.932 21.8105L104.16 21.2832C104.055 21.2363 103.979 21.2129 103.932 21.2129C103.908 21.2129 103.721 21.2832 103.369 21.4238L102.596 20.5801C102.479 20.5918 102.391 20.5977 102.332 20.5977C102.18 20.5977 101.957 20.5625 101.664 20.4922C101.547 20.3047 101.477 20.2051 101.453 20.1934L99.6953 19.8594L99.0449 19.6484L98.4824 19.7363L98.1484 19.7012H97.6738L97.0234 19.543L96.3379 19.5078L95.7402 19.4727L94.2461 19.6836L92.9102 19.8066C92.5469 19.8887 92.248 19.9297 92.0137 19.9297C91.9434 19.9297 91.8027 19.9297 91.5918 19.9297C91.4746 20.1875 91.4102 20.334 91.3984 20.3691L91.2754 22.4082C91.2637 22.5957 91.1113 22.8066 90.8184 23.041L90.8535 23.0938C90.9238 23.2109 90.9707 23.3457 90.9941 23.498ZM91.2227 45.752L91.3809 46.332L91.9258 46.2441C92.0664 46.5723 92.1367 46.8594 92.1367 47.1055V47.1934C92.1367 47.334 92.125 47.498 92.1016 47.6855C92.0664 47.8613 92.0488 47.9551 92.0488 47.9668C92.2129 48.834 92.2949 49.291 92.2949 49.3379C92.2949 49.584 92.1543 49.8477 91.873 50.1289C91.7559 50.0938 91.6504 50.0762 91.5566 50.0762C91.4863 50.0762 91.4043 50.1348 91.3105 50.252C91.5918 50.4395 91.9141 50.5625 92.2773 50.6211C92.5938 50.6562 92.8809 50.7441 93.1387 50.8848L93.209 51.2363C93.4082 51.2012 93.5781 51.0898 93.7188 50.9023C94.1172 51.0898 94.5625 51.2305 95.0547 51.3242L95.6523 51.5703L96.1973 51.6406C97.627 51.8516 98.7461 51.957 99.5547 51.957C100.234 51.957 101.189 51.8281 102.42 51.5703L102.771 51.8516C102.924 51.6641 103.029 51.5645 103.088 51.5527L103.861 51.4473C103.99 51.4355 104.184 51.3066 104.441 51.0605C104.875 51.0488 105.15 51.0254 105.268 50.9902L106.252 50.7441C106.768 50.6387 107.219 50.4863 107.605 50.2871C107.84 50.1699 108.016 50.1113 108.133 50.1113C108.18 50.1113 108.273 50.1348 108.414 50.1816C108.52 50.0527 108.672 49.9531 108.871 49.8828C110.195 49.3086 111.133 48.7695 111.684 48.2656C111.801 48.1719 112.316 47.8789 113.23 47.3867C113.289 47.3516 113.412 47.1582 113.6 46.8066C113.869 46.4785 114.045 46.2676 114.127 46.1738C114.256 46.0332 114.537 45.8867 114.971 45.7344L115.006 45.3652C116.084 45.1895 116.623 45.0605 116.623 44.9785C116.623 44.8965 116.066 44.791 114.953 44.6621C115.129 44.3223 115.246 44.0938 115.305 43.9766C115.316 43.918 115.387 43.6016 115.516 43.0273C115.586 42.8281 115.627 42.6523 115.639 42.5L115.568 42.4297L115.885 42.1836C115.756 41.9844 115.691 41.8555 115.691 41.7969V40.9355L115.34 40.3027L115.357 39.793C115.357 39.4414 114.994 38.7969 114.268 37.8594C113.986 37.4844 113.412 36.8691 112.545 36.0137C112.568 35.8848 112.58 35.7734 112.58 35.6797C112.58 35.5859 112.539 35.498 112.457 35.416C112.34 35.3105 112.264 35.2578 112.229 35.2578H112.035C111.801 35.1523 111.572 35.041 111.35 34.9238C110.904 34.6777 110.635 34.5254 110.541 34.4668C110.471 34.4199 110.383 34.3027 110.277 34.1152C110.266 34.1035 110.225 34.0742 110.154 34.0273C110.049 33.9688 109.943 33.8984 109.838 33.8164C109.604 33.6406 109.363 33.5176 109.117 33.4473L108.748 33.2188C108.549 33.1133 108.432 33.043 108.396 33.0078C108.373 32.9844 108.273 32.7734 108.098 32.375C108.074 32.3281 108.027 32.3047 107.957 32.3047C107.922 32.3047 107.717 32.3867 107.342 32.5508C107.307 32.5625 107.277 32.5684 107.254 32.5684C107.102 32.5684 106.932 32.5156 106.744 32.4102C106.51 32.2578 106.229 32.123 105.9 32.0059L105.549 31.8301L103.967 31.3555L102.877 30.7754C102.549 30.6465 102.291 30.5059 102.104 30.3535C101.705 30.541 101.471 30.6348 101.4 30.6348C101.4 30.6348 101.072 30.5293 100.416 30.3184L99.7832 30.0723L99.0625 29.9668L98.4824 29.8262L98.1484 29.7734L97.498 29.6328C96.502 29.5391 95.9863 29.4922 95.9512 29.4922L95.0195 29.5273L93.5781 29.4746C93.0508 29.4746 92.5176 29.7207 91.9785 30.2129C92.0137 30.4941 92.0898 30.9277 92.207 31.5137C92.2188 31.5605 92.2246 31.6133 92.2246 31.6719C92.2246 31.8008 92.1719 32.0176 92.0664 32.3223H92.0312C91.75 32.3223 91.5566 32.3633 91.4512 32.4453C91.5098 32.8555 91.5508 33.0957 91.5742 33.166C91.5977 33.2246 91.7207 33.377 91.9434 33.623C91.8965 33.7988 91.8672 33.9922 91.8555 34.2031V34.2383C91.8555 34.4844 91.8555 34.6484 91.8555 34.7305C91.8555 34.8125 91.8555 34.8594 91.8555 34.8711C91.8555 35 91.8965 35.3164 91.9785 35.8203C92.002 36.0195 92.0137 36.207 92.0137 36.3828C92.0137 36.5352 92.002 36.752 91.9785 37.0332L91.8906 38.0703L91.8555 38.4395L92.0312 39.1074L92.0664 39.9688C92.1484 40.4492 92.1895 40.7656 92.1895 40.918C92.1895 41.1406 92.1367 41.5215 92.0312 42.0605H91.75L91.8379 42.9395C92.1426 43.1738 92.2949 43.4082 92.2949 43.6426L92.2773 44.8203C92.2773 44.9258 92.2832 45.0957 92.2949 45.3301L92.1895 45.4355H92.1016L92.0312 45.5059V45.6113C91.8555 45.5996 91.709 45.5938 91.5918 45.5938C91.416 45.5938 91.293 45.6465 91.2227 45.752ZM122.125 34.8887C122.125 34.7246 122.301 34.502 122.652 34.2207C123.426 33.623 124.094 33.2305 124.656 33.043L125.184 33.5879C125.066 33.8809 124.973 34.291 124.902 34.8184C124.832 35.252 124.797 35.5156 124.797 35.6094V36.2598L124.498 36.6816C124.498 36.9746 124.627 37.2559 124.885 37.5254C124.814 37.6543 124.779 37.7305 124.779 37.7539L124.814 38.6152C124.814 38.6152 124.809 38.6797 124.797 38.8086C124.785 38.8906 124.779 39.0254 124.779 39.2129L124.691 42.5703C124.703 42.7461 124.779 43.1504 124.92 43.7832L124.955 44.5215C125.025 44.873 125.061 45.0781 125.061 45.1367C125.061 45.3828 124.955 45.6055 124.744 45.8047C124.686 45.8633 124.463 46.0156 124.076 46.2617C123.49 46.7188 123.156 46.9648 123.074 47C122.957 47.0469 122.852 47.0703 122.758 47.0703C122.617 47.0703 122.477 47 122.336 46.8594C122.383 46.5664 122.412 46.373 122.424 46.2793C122.436 46.1387 122.5 45.8809 122.617 45.5059L122.635 44.6445L122.758 42.9219L122.74 42.6055C122.752 42.418 122.846 42.3242 123.021 42.3242C123.068 42.3242 123.127 42.3301 123.197 42.3418C123.256 42.1543 123.285 42.0254 123.285 41.9551C123.285 41.8613 123.25 41.6797 123.18 41.4102C123.145 41.293 123.109 41.1289 123.074 40.918L122.775 40.6895C122.811 40.4316 122.828 40.2383 122.828 40.1094C122.828 40.0508 122.822 39.9629 122.811 39.8457C122.811 39.752 122.811 39.6699 122.811 39.5996C122.811 39.4473 122.869 39.2773 122.986 39.0898C122.869 38.9492 122.811 38.8027 122.811 38.6504V38.5098V38.3867L122.775 37.9824C123.537 37.8418 123.918 37.7188 123.918 37.6133C123.918 37.6016 123.906 37.584 123.883 37.5605C123.707 37.4082 123.49 37.332 123.232 37.332C123.045 37.332 122.816 37.3438 122.547 37.3672C122.582 37.1914 122.6 37.0742 122.6 37.0156C122.6 36.9922 122.553 36.4121 122.459 35.2754C122.447 35.1348 122.336 35.0059 122.125 34.8887ZM122.441 27.8047V27.7871C122.418 27.377 122.717 26.9316 123.338 26.4512C123.479 26.3457 123.631 26.1934 123.795 25.9941C123.807 25.9824 123.924 25.8887 124.146 25.7129C124.58 25.0684 124.85 24.7109 124.955 24.6406C125.131 24.5117 125.277 24.4473 125.395 24.4473C125.441 24.4473 125.576 24.5352 125.799 24.7109C126.021 24.875 126.133 25.0742 126.133 25.3086C126.133 25.4961 126.027 25.6602 125.816 25.8008C125.277 26.1875 124.762 26.6094 124.27 27.0664L123.777 27.3828L123.162 27.8047C122.834 27.9805 122.646 28.0684 122.6 28.0684C122.494 28.0684 122.441 27.9805 122.441 27.8047ZM129.104 34.5195C129.197 34.0625 129.355 33.834 129.578 33.834H129.596L130.457 33.8867H130.492C131.148 33.793 131.523 33.7402 131.617 33.7285C131.617 33.5176 131.617 33.377 131.617 33.3066C131.617 32.2051 131.594 31.3027 131.547 30.5996C131.523 30.2949 131.453 30.0195 131.336 29.7734L131.16 29.4043C131.113 29.3105 131.09 29.2109 131.09 29.1055C131.09 28.9297 131.23 28.7188 131.512 28.4727C131.945 28.0742 132.496 27.8105 133.164 27.6816C133.316 27.3652 133.48 27.207 133.656 27.207C133.727 27.207 133.785 27.2363 133.832 27.2949C133.996 27.4707 134.078 27.6992 134.078 27.9805C134.078 27.9922 134.025 28.918 133.92 30.7578C133.779 31.2383 133.691 31.5195 133.656 31.6016C133.609 31.7656 133.475 31.9355 133.252 32.1113C133.252 32.3457 133.287 32.5742 133.357 32.7969H133.762L133.656 33.6934C133.949 33.7168 134.559 33.8574 135.484 34.1152C135.543 34.127 135.742 34.1328 136.082 34.1328C136.293 34.1328 136.639 34.0625 137.119 33.9219L138.279 33.8164C138.877 33.582 139.229 33.4648 139.334 33.4648C139.486 33.4648 139.674 33.4824 139.896 33.5176C139.873 33.8457 139.838 34.0801 139.791 34.2207C139.744 34.3965 139.375 34.6953 138.684 35.1172C138.52 35.2109 138.402 35.2988 138.332 35.3809C138.156 35.5918 138.062 35.6973 138.051 35.6973C137.992 35.7441 137.852 35.7676 137.629 35.7676C137.453 35.7676 137.324 35.7441 137.242 35.6973L136.521 35.3105L136.082 35.2051L135.555 34.8184L134.658 35.5039L133.885 35.3984C133.826 35.3984 133.709 35.457 133.533 35.5742C133.627 36.1367 133.674 36.6113 133.674 36.998C133.674 37.1855 133.668 37.4609 133.656 37.8242C133.223 37.8945 133.006 38.0703 133.006 38.3516C133.006 38.457 133.029 38.5859 133.076 38.7383C133.334 38.7617 133.551 38.7969 133.727 38.8438L133.691 41.041C133.516 40.9941 133.369 40.9707 133.252 40.9707C133.041 40.9707 132.936 41.0586 132.936 41.2344C132.936 41.375 132.988 41.5449 133.094 41.7441C133.258 41.6387 133.398 41.5859 133.516 41.5859C133.691 41.5859 133.779 41.6973 133.779 41.9199L133.727 42.623V42.6582C133.75 43.1387 133.768 43.4844 133.779 43.6953C133.803 43.918 133.873 44.1406 133.99 44.3633L134.201 44.7324C134.225 44.7793 134.236 44.8496 134.236 44.9434C134.236 45.0488 134.225 45.1836 134.201 45.3477C134.564 45.5586 134.969 45.6641 135.414 45.6641C135.789 45.6641 136.164 45.5703 136.539 45.3828C136.844 45.2188 137.008 45.125 137.031 45.1016L137.998 44.2227C138.479 43.8242 138.771 43.625 138.877 43.625C138.982 43.625 139.129 43.6777 139.316 43.7832C139.281 44.0059 139.258 44.1582 139.246 44.2402C139.164 44.8496 139.082 45.207 139 45.3125C138.918 45.4062 138.561 45.5527 137.928 45.752C137.447 45.998 136.721 46.2852 135.748 46.6133L135.15 46.8066C134.752 47.0293 134.523 47.1406 134.465 47.1406C134.359 47.1406 134.242 47.0352 134.113 46.8242L133.797 46.7363L133.604 47.1758C133.439 47.1992 133.299 47.2109 133.182 47.2109C132.877 47.2109 132.514 47.0117 132.092 46.6133C131.904 46.4258 131.752 46.2324 131.635 46.0332C131.623 46.0215 131.576 45.8691 131.494 45.5762C131.365 45.1895 131.301 44.9668 131.301 44.9082C131.301 44.8027 131.312 44.6328 131.336 44.3984C131.359 44.2109 131.371 43.8184 131.371 43.2207C131.383 42.834 131.488 42.541 131.688 42.3418C131.617 42.1191 131.582 41.8496 131.582 41.5332C131.523 40.9941 131.488 39.9688 131.477 38.457C131.758 38.2812 131.898 38.1113 131.898 37.9473C131.898 37.8535 131.887 37.7422 131.863 37.6133L131.354 37.4902L131.318 37.332V37.3145C131.318 37.2559 131.336 37.1328 131.371 36.9453C131.441 36.6406 131.477 36.1133 131.477 35.3633C130.996 35.2578 130.645 35.2051 130.422 35.2051C130.352 35.2051 130.047 35.2402 129.508 35.3105L129.139 35.3457C128.811 35.4512 128.635 35.5039 128.611 35.5039C128.447 35.5039 128.365 35.4277 128.365 35.2754C128.365 35.041 128.611 34.7891 129.104 34.5195ZM144.168 42.166C144.484 41.9902 144.643 41.7852 144.643 41.5508C144.643 41.4336 144.543 41.3281 144.344 41.2344C144.32 40.7305 144.309 40.291 144.309 39.916C144.309 39.7051 144.32 39.4824 144.344 39.248C144.426 38.5918 144.467 38.2168 144.467 38.123C144.467 38.0527 144.449 37.9121 144.414 37.7012L144.889 37.5781C144.9 37.5078 144.906 37.4492 144.906 37.4023C144.906 37.3555 144.854 37.2383 144.748 37.0508C144.643 36.8398 144.561 36.6289 144.502 36.418C144.689 36.3242 144.812 36.2305 144.871 36.1367C144.93 36.0312 144.971 35.8496 144.994 35.5918C144.807 35.3457 144.684 35.1641 144.625 35.0469L145.645 34.3438L145.592 34.3262L144.537 33.957L145.012 32.5859C144.93 32.1992 144.707 32.0176 144.344 32.041C144.484 31.5137 144.555 31.1914 144.555 31.0742C144.555 31.0508 144.537 30.9219 144.502 30.6875L144.484 30.1426C144.449 29.6738 144.432 29.2871 144.432 28.9824C144.432 28.6777 144.525 28.4199 144.713 28.209C144.455 27.8105 144.326 27.459 144.326 27.1543C144.326 26.9902 144.379 26.791 144.484 26.5566C144.32 26.3574 144.238 26.2051 144.238 26.0996C144.238 26.041 144.256 25.9473 144.291 25.8184C144.326 25.7246 144.35 25.4082 144.361 24.8691C144.361 24.7988 144.373 24.6465 144.396 24.4121H144.168C144.191 24.1895 144.203 23.75 144.203 23.0938C144.355 22.6484 144.432 22.3965 144.432 22.3379C144.432 22.209 144.332 21.9102 144.133 21.4414C143.898 21.4297 143.717 21.3711 143.588 21.2656C143.6 21.1133 143.67 20.9609 143.799 20.8086C144.127 20.3867 144.531 20.0352 145.012 19.7539C145.656 19.4023 146.09 19.1094 146.312 18.875H146.611C147.068 19.4375 147.35 19.8594 147.455 20.1406C147.561 20.457 147.643 20.6387 147.701 20.6855L147.982 20.9316C148.006 20.9668 148.029 21.1543 148.053 21.4941C148.17 21.8809 148.264 22.2031 148.334 22.4609C147.654 22.543 147.314 22.6719 147.314 22.8477C147.314 23.0352 147.52 23.2109 147.93 23.375C148.188 23.2227 148.428 23.1172 148.65 23.0586L148.703 23.1113C148.738 23.6855 148.85 24.1367 149.037 24.4648C149.189 24.6992 149.266 24.875 149.266 24.9922C149.266 24.9922 149.266 24.998 149.266 25.0098C149.23 25.2324 149.213 25.4199 149.213 25.5723C149.213 25.7949 149.4 26 149.775 26.1875C149.811 26.4219 149.869 26.6445 149.951 26.8555C149.975 26.9141 149.986 26.9785 149.986 27.0488C149.986 27.166 149.975 27.2949 149.951 27.4355C150.361 27.6934 150.566 27.916 150.566 28.1035C150.566 28.3027 150.361 28.5312 149.951 28.7891L150.197 29.6504L150.338 29.6855C150.584 29.3574 150.777 29.1934 150.918 29.1934C151.023 29.1934 151.158 29.2109 151.322 29.2461C151.322 29.2461 151.34 29.2988 151.375 29.4043C151.387 29.4277 151.393 29.5098 151.393 29.6504C151.393 29.6738 151.393 29.7031 151.393 29.7383C151.381 29.7852 151.375 29.8086 151.375 29.8086C151.375 29.9141 151.422 30.043 151.516 30.1953C151.996 31.0273 152.266 31.5957 152.324 31.9004C152.371 32.123 152.441 32.3809 152.535 32.6738C152.547 32.709 152.553 32.7441 152.553 32.7793C152.553 32.9082 152.529 33.0605 152.482 33.2363H152.219C152.207 33.2832 152.201 33.3125 152.201 33.3242C152.201 33.4297 152.26 33.5703 152.377 33.7461L152.641 33.6582C152.746 33.6582 152.822 33.6992 152.869 33.7812C152.916 33.8516 152.969 34.0684 153.027 34.4316L153.467 34.5898C153.525 34.8828 153.648 35.1758 153.836 35.4688C154.094 35.8789 154.363 36.4824 154.645 37.2793C154.656 37.3145 154.756 37.4902 154.943 37.8066C155.143 38.1816 155.289 38.6152 155.383 39.1074L155.436 39.3359L155.383 39.793C155.383 39.8398 155.488 39.9629 155.699 40.1621C155.781 40.2324 155.875 40.3496 155.98 40.5137L156.402 40.6191C156.496 41.123 156.596 41.4746 156.701 41.6738L157.035 41.7969C157.164 42.1953 157.422 42.7344 157.809 43.4141L158.6 45.1719L158.951 45.6992C159.162 46.1094 159.309 46.3438 159.391 46.4023C159.426 46.4258 159.502 46.4375 159.619 46.4375C159.795 46.2031 159.994 45.875 160.217 45.4531L160.762 44.4512L160.955 44.0645L161.254 43.5371L161.395 42.9746C161.781 42.3418 161.986 42.002 162.01 41.9551C162.057 41.8965 162.232 41.7676 162.537 41.5684C162.689 41.4629 162.766 41.3574 162.766 41.252C162.766 41.2168 162.76 41.1816 162.748 41.1465C162.619 40.7129 162.555 40.4902 162.555 40.4785C162.555 40.4785 162.66 40.332 162.871 40.0391C162.941 39.9453 163.023 39.7754 163.117 39.5293L163.574 39.582C163.691 39.4297 163.75 39.3125 163.75 39.2305C163.75 39.1367 163.738 39.0137 163.715 38.8613C163.703 38.7441 163.697 38.6387 163.697 38.5449C163.697 38.3223 163.727 38.1406 163.785 38L164.611 35.8906C164.775 35.2461 164.887 34.877 164.945 34.7832C165.039 34.6426 165.221 34.4727 165.49 34.2734C165.408 34.0039 165.367 33.8223 165.367 33.7285C165.367 33.5762 165.625 32.9316 166.141 31.7949L166.492 30.6699C166.832 29.9785 167.02 29.5918 167.055 29.5098C167.137 29.3574 167.342 29.2695 167.67 29.2461C167.553 29.0117 167.471 28.7422 167.424 28.4375L167.406 28.2617L167.564 27.5938L167.547 27.2422L169.357 24.5176C169.404 24.0723 169.445 23.8203 169.48 23.7617C169.738 23.3516 169.914 23.1055 170.008 23.0234C170.031 23 170.307 22.8125 170.834 22.4609L171.01 22.2324L171.045 22.1973C170.998 22.0566 170.482 21.9395 169.498 21.8457H169.059L168.496 21.0547C168.684 20.6562 168.777 20.457 168.777 20.457C168.789 20.4453 168.895 20.3926 169.094 20.2988L169.674 19.9297L170.219 19.7188C170.676 19.4492 170.992 19.2852 171.168 19.2266C171.309 19.1797 171.648 19.1035 172.188 18.998C172.281 19.4551 172.328 19.8652 172.328 20.2285L172.398 20.668L172.416 20.9316L172.486 21.4062L172.416 22.4082V23.0059L172.328 23.6211L172.363 24.1309L172.346 24.3945C172.346 24.4531 172.387 24.5586 172.469 24.7109C172.328 24.6875 172.199 24.6758 172.082 24.6758C171.895 24.6758 171.801 24.7578 171.801 24.9219C171.801 25.0977 171.994 25.2207 172.381 25.291L172.117 25.8711L172.188 25.9414H172.398L172.521 26.0469C172.521 26.3281 172.516 26.5098 172.504 26.5918C172.492 26.873 172.486 27.0605 172.486 27.1543C172.486 27.1895 172.533 27.6523 172.627 28.543C172.627 28.5664 172.627 28.5957 172.627 28.6309C172.627 28.7715 172.498 29.0469 172.24 29.457C172.217 29.5039 172.205 29.6914 172.205 30.0195C172.205 30.1367 172.246 30.2598 172.328 30.3887L172.803 30.3359L172.996 30.5293C172.902 30.8105 172.855 31.127 172.855 31.4785C172.855 31.6777 172.891 32.0352 172.961 32.5508L173.066 35.7324C173.066 35.8262 173.078 35.9609 173.102 36.1367C173.137 36.4297 173.154 36.6699 173.154 36.8574C173.154 36.9512 173.131 37.0625 173.084 37.1914L172.609 37.1562C172.609 37.2266 172.609 37.2852 172.609 37.332C172.609 37.4609 172.551 37.6426 172.434 37.877C172.668 38.0996 172.902 38.2285 173.137 38.2637C173.219 38.4863 173.266 38.7383 173.277 39.0195L173.488 40.373L173.611 41.1816L173.734 41.4102C173.582 41.9141 173.5 42.1895 173.488 42.2363C173.465 42.3535 173.43 42.5059 173.383 42.6934L174.033 43.1855C174.045 43.4199 174.051 43.625 174.051 43.8008C174.051 43.8945 174.045 43.9883 174.033 44.082C173.986 44.3398 173.963 44.4746 173.963 44.4863C173.963 44.6152 174.021 44.8027 174.139 45.0488L173.594 45.1543L173.365 45.8574C173.482 45.9512 173.635 46.0332 173.822 46.1035C173.986 46.1504 174.104 46.3555 174.174 46.7188C174.232 47.082 174.268 47.2637 174.279 47.2637L174.49 47.668C174.514 47.7734 174.607 48.1895 174.771 48.916C174.783 49.4551 174.836 50.0293 174.93 50.6387C174.766 50.8027 174.496 51.084 174.121 51.4824C173.441 51.9863 172.768 52.2266 172.1 52.2031C172.041 52.2031 171.918 52.2441 171.73 52.3262C171.613 52.373 171.514 52.3965 171.432 52.3965C171.373 52.3965 171.279 52.3555 171.15 52.2734C171.291 51.8984 171.379 51.5 171.414 51.0781L171.467 50.6914C171.361 50.3398 171.309 50.1523 171.309 50.1289C171.309 49.9414 171.467 49.7715 171.783 49.6191L171.748 49.1621C171.396 48.8457 171.221 48.5703 171.221 48.3359C171.221 48.2188 171.238 48.0957 171.273 47.9668C171.484 47.1699 171.59 46.7539 171.59 46.7188L171.203 45.5762V45.541L171.273 44.1699V44.1523C171.285 43.918 171.227 43.4609 171.098 42.7812C171.051 42.5586 171.027 42.3945 171.027 42.2891L171.432 42.2539C171.385 41.8555 171.35 41.6211 171.326 41.5508C171.303 41.457 171.168 41.3867 170.922 41.3398C170.875 41.0938 170.805 40.7949 170.711 40.4434C170.652 40.2207 170.623 39.8691 170.623 39.3887C170.623 39.3301 170.629 39.1309 170.641 38.791V38.7734C170.641 38.6914 170.641 38.627 170.641 38.5801C170.629 38.5449 170.623 38.5273 170.623 38.5273C170.764 38.1289 170.834 37.918 170.834 37.8945C170.834 37.8711 170.799 37.7012 170.729 37.3848L170.641 36.9629L170.5 36.6465L170.377 34.8359L170.254 34.1504L170.377 32.6387L170.289 32.0586L171.572 31.5664L170.289 31.25C170.406 31.0508 170.465 30.9219 170.465 30.8633C170.465 30.4297 170.283 30.1543 169.92 30.0371C169.908 30.0137 169.902 30.002 169.902 30.002C169.902 29.7559 170.107 29.5977 170.518 29.5273L171.344 29.3867L169.955 28.6133L169.938 27.7344C169.926 27.6289 169.826 27.4766 169.639 27.2773H169.48C169.41 27.5117 169.357 27.6641 169.322 27.7344C169.135 28.2031 169.035 28.4434 169.023 28.4551C169 28.4551 168.988 28.6309 168.988 28.9824L168.549 29.3516C168.549 29.4336 168.549 29.5039 168.549 29.5625C168.549 29.7031 168.414 30.0137 168.145 30.4941L167.916 31.1094L167.67 31.707L167.477 32.3398L167.107 32.8672L167.002 33.4473L166.861 33.7109L166.773 34.3789L166.018 36.1543L165.666 37.1914C165.607 37.2617 165.484 37.373 165.297 37.5254L165.227 38.0352L164.787 38.2812C164.775 38.5508 164.682 39.0137 164.506 39.6699L164.031 39.8984C164.066 40.1094 164.084 40.2852 164.084 40.4258C164.084 40.9883 163.838 41.457 163.346 41.832C163.381 41.9375 163.398 42.0312 163.398 42.1133C163.398 42.1484 163.363 42.2188 163.293 42.3242C163.246 42.3828 163.129 42.6113 162.941 43.0098L162.52 43.8008L162.062 45.0488L161.816 45.6113L161.588 46.1738L161.289 46.6484L161.096 47.0703C160.932 47.3281 160.809 47.6328 160.727 47.9844C160.293 49.0742 159.982 49.9004 159.795 50.4629C159.631 50.4629 159.508 50.4629 159.426 50.4629C159.367 50.4629 159.314 50.4629 159.268 50.4629C159.033 50.4746 158.898 50.4805 158.863 50.4805C158.734 50.4805 158.629 50.4336 158.547 50.3398C158.453 50.2344 158.219 49.7363 157.844 48.8457C157.785 48.7402 157.562 48.4414 157.176 47.9492C157.047 47.7734 156.947 47.5215 156.877 47.1934C156.818 46.9707 156.748 46.7305 156.666 46.4727L156.332 46.4199C156.215 46.1035 156.062 45.6523 155.875 45.0664C155.793 44.7969 155.529 44.3105 155.084 43.6074C154.92 43.3496 154.838 43.0625 154.838 42.7461C154.838 42.6992 154.896 42.5117 155.014 42.1836C155.025 42.1602 155.031 42.1309 155.031 42.0957C155.031 41.9785 154.949 41.8262 154.785 41.6387L154.223 41.832C154 41.3516 153.848 41.041 153.766 40.9004C153.602 40.6191 153.479 40.3848 153.396 40.1973L153.238 39.916L153.098 39.4414C152.816 38.9375 152.623 38.5215 152.518 38.1934C152.365 38.0762 152.283 38.0059 152.271 37.9824C152.072 37.502 151.873 37.0215 151.674 36.541C151.205 35.7207 150.918 35.1641 150.812 34.8711L150.883 34.8184L151.146 34.7305C151.029 34.4609 150.947 34.2852 150.9 34.2031C150.76 33.9336 150.672 33.7461 150.637 33.6406C150.496 33.1367 150.391 32.8613 150.32 32.8145C150.262 32.7793 150.209 32.7617 150.162 32.7617C150.057 32.7617 149.934 32.791 149.793 32.8496C149.172 31.666 148.861 30.9512 148.861 30.7051C148.861 30.6113 148.867 30.4941 148.879 30.3535C148.668 30.1191 148.521 29.9609 148.439 29.8789C148.322 29.75 148.252 29.6211 148.229 29.4922C148.217 29.4453 148.205 29.2285 148.193 28.8418C147.994 28.6074 147.871 28.3555 147.824 28.0859C147.777 27.875 147.695 27.6465 147.578 27.4004L147.35 27.3477C147.033 26.5977 146.705 26.2227 146.365 26.2227C146.295 26.2227 146.219 26.2344 146.137 26.2578C146.23 26.5391 146.283 26.8555 146.295 27.207L146.4 27.8574V28.666C146.482 29.3105 146.523 29.6387 146.523 29.6504C146.523 29.7207 146.512 29.8379 146.488 30.002C146.477 30.1309 146.471 30.2656 146.471 30.4062C146.471 30.5234 146.494 30.9102 146.541 31.5664V31.6016L146.453 32.1289L146.207 32.3047L146.295 32.9023L146.049 33.0078V33.4473C146.436 33.459 146.629 33.5645 146.629 33.7637C146.629 33.7637 146.623 33.9219 146.611 34.2383L146.576 34.5898V36.0488L146.523 36.6992L146.541 37.3672C146.541 37.4727 146.459 37.6133 146.295 37.7891L146.418 38.7383L146.154 38.8438C146.107 39.0078 146.084 39.1543 146.084 39.2832C146.084 39.3184 146.178 39.582 146.365 40.0742C146.365 40.0859 146.365 40.1035 146.365 40.127C146.365 40.209 146.348 40.3496 146.312 40.5488C146.277 40.7246 146.26 40.9414 146.26 41.1992C146.26 41.3398 146.266 41.4805 146.277 41.6211C146.289 41.9727 146.295 42.2246 146.295 42.377C146.295 42.4824 146.248 42.7754 146.154 43.2559C146.084 43.6426 146.049 44.0469 146.049 44.4688C146.049 44.7852 146.113 45.0957 146.242 45.4004C146.172 45.541 146.061 45.6582 145.908 45.752C145.416 46.0449 145.17 46.2969 145.17 46.5078C145.17 46.6484 145.27 46.8418 145.469 47.0879L145.82 46.6484H145.961L146.084 46.7715C146.049 46.9121 146.031 47.0293 146.031 47.123C146.031 47.2168 146.096 47.3984 146.225 47.668C146.236 47.7031 146.242 47.7207 146.242 47.7207C146.242 47.8848 145.99 48.0547 145.486 48.2305C145.018 48.3945 144.783 48.5703 144.783 48.7578C144.783 48.9102 144.965 49.0508 145.328 49.1797L146.295 49.5137C146.225 49.7832 146.189 49.9473 146.189 50.0059C146.189 50.1113 146.195 50.2285 146.207 50.3574L145.768 50.6387C145.814 50.7793 145.838 50.9023 145.838 51.0078C145.838 51.0664 145.82 51.1191 145.785 51.166C145.75 51.2012 145.387 51.3301 144.695 51.5527L144.133 51.8867C143.383 52.1445 143.002 52.2734 142.99 52.2734C142.955 52.2734 142.885 52.25 142.779 52.2031C142.779 52.1797 142.779 52.168 142.779 52.168L142.762 52.0098V51.9922C142.762 51.9453 142.879 51.7871 143.113 51.5176C143.195 51.4121 143.441 51.2188 143.852 50.9375C144.133 50.75 144.303 50.5977 144.361 50.4805L144.643 49.9531L144.906 49.6016L143.5 48.7402C143.5 48.7402 143.547 48.6816 143.641 48.5645C143.805 48.4004 143.893 48.1309 143.904 47.7559C143.916 47.0879 143.922 46.7422 143.922 46.7188L144.062 46.1914C144.086 46.1211 144.098 46.0332 144.098 45.9277C144.098 45.8574 144.068 45.7227 144.01 45.5234L144.133 45.1191L143.975 44.5039C144.197 43.6836 144.309 43.2324 144.309 43.1504C144.309 42.9746 144.262 42.6465 144.168 42.166ZM182.664 40.6895C182.805 40.4668 182.939 40.3145 183.068 40.2324C183.162 40.1738 183.514 40.0801 184.123 39.9512C184.568 39.7285 184.867 39.5938 185.02 39.5469C185.125 39.5234 185.477 39.4824 186.074 39.4238L186.637 39.2305L186.971 39.1953L187.287 39.1602H187.973L189.361 38.9844C189.771 38.9492 190.029 38.8965 190.135 38.8262C190.346 38.6738 190.451 38.4512 190.451 38.1582C190.451 38.0996 190.404 37.9121 190.311 37.5957L191.225 36.4531C191.225 36.4414 190.861 36.3242 190.135 36.1016C190.076 36.0781 189.9 36.0664 189.607 36.0664C189.104 35.4219 188.805 35.0645 188.711 34.9941C188.594 34.9473 188.148 34.8652 187.375 34.748H186.812C186.555 34.6777 186.385 34.6426 186.303 34.6426C186.209 34.6426 186.074 34.6543 185.898 34.6777L185.564 34.2559C185.307 34.3496 185.107 34.4785 184.967 34.6426C184.85 34.7715 184.668 34.8828 184.422 34.9766C183.812 35.2344 183.309 35.5215 182.91 35.8379L182.664 35.9961C182.512 36.2188 182.412 36.3418 182.365 36.3652C182.225 36.4473 182.061 36.4883 181.873 36.4883C181.803 36.4883 181.586 36.4238 181.223 36.2949C180.824 36.2012 180.578 36.125 180.484 36.0664C180.379 35.9961 180.244 35.8496 180.08 35.627C180.279 35.4746 180.42 35.3633 180.502 35.293C180.701 35.1172 180.836 35.0234 180.906 35.0117L181.732 34.8184L182.26 34.5371L183.385 34.1855L184.088 33.8867H184.809L185.6 33.6582L185.934 33.6406L186.549 33.5352C187.123 33.5469 187.486 33.5527 187.639 33.5527C187.803 33.5645 188.119 33.6465 188.588 33.7988L189.01 33.8516C189.467 33.9336 189.789 33.9922 189.977 34.0273C190.141 34.0391 190.352 34.168 190.609 34.4141C190.41 34.5898 190.311 34.7363 190.311 34.8535C190.311 35.0176 190.381 35.0996 190.521 35.0996C190.615 35.0996 190.75 35.0527 190.926 34.959C191.043 34.9121 191.207 34.8594 191.418 34.8008C191.57 34.9531 191.652 35.1523 191.664 35.3984L192.104 35.7148C192.127 35.8438 192.139 35.9258 192.139 35.9609L192.086 36.6465C192.215 37.1621 192.344 37.4844 192.473 37.6133H192.543C192.578 37.8711 192.625 38.1523 192.684 38.457C192.719 39.1367 192.742 39.5879 192.754 39.8105C192.484 39.9746 192.35 40.1328 192.35 40.2852C192.35 40.4609 192.508 40.6191 192.824 40.7598C192.836 40.9121 192.842 41.041 192.842 41.1465C192.842 41.252 192.818 41.457 192.771 41.7617C192.76 41.8906 192.754 42.0195 192.754 42.1484C192.754 42.5352 192.818 43.0156 192.947 43.5898C192.736 43.8008 192.631 44.0117 192.631 44.2227C192.631 44.3984 192.73 44.627 192.93 44.9082C192.953 44.9551 192.994 45.0664 193.053 45.2422C193.088 45.3242 193.152 45.4824 193.246 45.7168C193.117 45.8691 193.023 46.0156 192.965 46.1562C192.871 46.2383 192.689 46.332 192.42 46.4375L191.752 46.7363L191.33 46.8594C190.896 47.0117 190.656 47.0879 190.609 47.0879C190.492 47.0879 190.363 47.0234 190.223 46.8945L190.486 45.7168C190.146 45.7988 189.654 45.9805 189.01 46.2617L188.5 46.3672C188.195 46.4375 188.037 46.4727 188.025 46.4727L187.375 46.4023L186.725 46.7363L186.373 46.7715L184.949 47.0703L184.211 47.0176C183.848 47.1465 183.602 47.2109 183.473 47.2109C183.309 47.2109 182.852 47.1348 182.102 46.9824L181.363 46.9121L180.818 46.6836C180.408 46.5312 180.104 46.3789 179.904 46.2266C179.729 46.0977 179.588 45.875 179.482 45.5586L179.078 45.418C179.031 45.3008 178.979 45.0898 178.92 44.7852L178.744 44.0293V44.0117C178.732 43.9062 178.809 43.7363 178.973 43.502C179.102 43.3262 179.266 43.0273 179.465 42.6055C180.039 42.043 180.42 41.6797 180.607 41.5156C180.771 41.3867 181.141 41.2051 181.715 40.9707C182.043 40.7598 182.248 40.6543 182.33 40.6543C182.424 40.6543 182.535 40.666 182.664 40.6895ZM181.574 44.416C181.48 44.5684 181.393 44.7266 181.311 44.8906C181.182 45.1016 181.123 45.2422 181.135 45.3125L181.311 45.6465L181.803 45.2246C182.201 45.5059 182.477 45.6582 182.629 45.6816C183.062 45.7988 183.297 45.8633 183.332 45.875C183.402 45.9219 183.502 46.0449 183.631 46.2441C183.9 46.2793 184.082 46.3027 184.176 46.3145C184.27 46.3262 184.346 46.332 184.404 46.332C184.533 46.332 184.691 46.25 184.879 46.0859C185.043 46.2031 185.184 46.2617 185.301 46.2617C185.324 46.2617 185.453 46.1855 185.688 46.0332L186.18 46.1387C186.18 46.1387 186.496 46.0273 187.129 45.8047L187.586 45.5938L187.973 45.6641L188.641 45.3828L189.414 45.084C189.613 44.7793 189.736 44.6035 189.783 44.5566C189.889 44.4512 190.094 44.3574 190.398 44.2754L190.504 43.7129C190.715 43.5957 190.844 43.4316 190.891 43.2207C190.727 43.1035 190.609 42.9805 190.539 42.8516C190.551 42.6523 190.557 42.5059 190.557 42.4121V42.1309C190.545 41.8145 190.533 41.5449 190.521 41.3223C190.51 41.252 190.504 41.1875 190.504 41.1289C190.504 40.9883 190.551 40.7832 190.645 40.5137C190.539 40.502 190.404 40.4316 190.24 40.3027L189.484 40.3203L188.799 40.2852L188.271 40.3027H187.938C187.891 40.3027 187.715 40.209 187.41 40.0215L187.023 40.1445C186.555 40.1445 186.209 40.1797 185.986 40.25C185.846 40.3086 185.729 40.3379 185.635 40.3379C185.611 40.3379 185.477 40.3027 185.23 40.2324C185.219 40.2324 185.207 40.2324 185.195 40.2324C185.137 40.2324 184.949 40.3379 184.633 40.5488C184.586 40.584 184.281 40.7012 183.719 40.9004C182.969 41.2285 182.43 41.5391 182.102 41.832C182.066 41.8672 181.938 42.043 181.715 42.3594C181.645 42.4648 181.439 42.5645 181.1 42.6582C181.053 42.7402 181.029 42.8047 181.029 42.8516C181.029 42.8867 181.076 42.957 181.17 43.0625L181.293 44.0117C181.316 44.0938 181.41 44.2285 181.574 44.416ZM197.781 34.9062C197.852 34.6953 197.963 34.502 198.115 34.3262C198.232 34.1973 198.537 34.0156 199.029 33.7812C199.533 33.4648 199.82 33.3066 199.891 33.3066C200.102 33.3066 200.26 33.3828 200.365 33.5352L200.436 33.834L200.576 34.3789C200.541 34.5078 200.523 34.6074 200.523 34.6777C200.523 34.7832 200.588 34.9062 200.717 35.0469C200.951 34.9766 201.268 34.8301 201.666 34.6074L202.404 34.3613L203.143 33.8691L203.617 33.6758C203.875 33.5469 204.016 33.4824 204.039 33.4824C204.039 33.4824 204.168 33.5059 204.426 33.5527C204.449 33.5527 204.467 33.5527 204.479 33.5527C204.537 33.5527 204.936 33.4297 205.674 33.1836C205.756 33.1602 205.932 33.1484 206.201 33.1484C206.4 33.1484 206.541 33.1777 206.623 33.2363C206.635 33.248 206.758 33.3652 206.992 33.5879C207.133 33.623 207.215 33.6406 207.238 33.6406C207.262 33.6406 207.432 33.5586 207.748 33.3945C207.771 33.3828 207.801 33.377 207.836 33.377C207.988 33.377 208.164 33.4648 208.363 33.6406C208.551 33.8047 208.686 34.0566 208.768 34.3965C208.592 34.5723 208.24 34.8477 207.713 35.2227C207.455 35.5508 207.268 35.7148 207.15 35.7148C206.963 35.7148 206.717 35.5273 206.412 35.1523C206.201 35.1758 206.025 35.1875 205.885 35.1875C205.732 35.1875 205.48 35.1172 205.129 34.9766C204.848 34.8711 204.561 34.8008 204.268 34.7656C204.15 35 203.957 35.1289 203.688 35.1523C203.359 35.1758 203.154 35.1992 203.072 35.2227C202.604 35.3633 202.369 35.4336 202.369 35.4336C202.322 35.4336 202.229 35.3926 202.088 35.3105C201.854 35.5215 201.443 35.8379 200.857 36.2598C200.482 36.5293 200.301 37.0039 200.312 37.6836V37.7363C200.312 37.877 200.312 38.0645 200.312 38.2988C200.324 38.5098 200.33 38.6855 200.33 38.8262C200.33 38.9551 200.195 39.1484 199.926 39.4062C200.125 39.6172 200.225 39.7988 200.225 39.9512C200.225 40.0332 200.213 40.1328 200.189 40.25L200.453 40.3203L200.506 40.8477L200.594 43.9941L200.523 44.1875L200.066 44.4336C199.41 44.5625 199.082 44.6504 199.082 44.6973C199.082 44.7441 199.451 44.8203 200.189 44.9258L200.488 44.8555C200.605 45.2422 200.664 45.5059 200.664 45.6465C200.664 45.916 200.529 46.127 200.26 46.2793C200.154 46.3379 199.855 46.3965 199.363 46.4551C199.27 46.4785 199.018 46.625 198.607 46.8945C198.537 46.9414 198.455 46.9648 198.361 46.9648C198.08 46.9648 197.939 46.8418 197.939 46.5957C197.939 46.5254 198.027 46.1914 198.203 45.5938C198.227 45.5234 198.238 45.4531 198.238 45.3828C198.238 45.3594 198.209 45.0957 198.15 44.5918C198.15 44.5566 198.174 44.457 198.221 44.293L198.643 44.1699C198.654 44.0645 198.66 43.9707 198.66 43.8887C198.66 43.7363 198.572 43.5547 198.396 43.3438C198.396 43.1797 198.396 43.0332 198.396 42.9043C198.396 42.7988 198.361 42.5234 198.291 42.0781C198.326 41.6914 198.344 41.3633 198.344 41.0938C198.777 40.9414 198.994 40.7539 198.994 40.5312C198.994 40.4609 198.977 40.3672 198.941 40.25C198.801 40.2852 198.684 40.3027 198.59 40.3027C198.508 40.3027 198.408 40.2559 198.291 40.1621C198.291 39.9277 198.291 39.6699 198.291 39.3887V39.0195V38.5449V38.4043C198.291 38.3105 198.285 38.2051 198.273 38.0879C198.273 37.9707 198.273 37.877 198.273 37.8066C198.273 37.6191 198.35 37.3672 198.502 37.0508C198.35 36.9219 198.262 36.8105 198.238 36.7168C198.227 36.6816 198.203 36.3008 198.168 35.5742C198.156 35.4336 198.027 35.2109 197.781 34.9062ZM209.734 18.8398C209.992 18.7227 210.555 18.3652 211.422 17.7676C211.844 17.6387 212.178 17.5039 212.424 17.3633C212.541 17.3984 212.6 17.4688 212.6 17.5742C212.6 17.6094 212.523 17.8965 212.371 18.4355C212.359 18.459 212.354 18.5 212.354 18.5586V18.6816V18.8047L212.424 21.125C212.447 21.2188 212.16 21.3945 211.562 21.6523C211.223 21.8047 211.053 22.0039 211.053 22.25C211.053 22.5898 211.527 23.0938 212.477 23.7617L211.932 23.9199L211.967 25.4668C212.072 25.5254 212.143 25.5547 212.178 25.5547C212.4 25.6133 212.512 25.6836 212.512 25.7656C212.512 25.8594 212.488 26.0469 212.441 26.3281C212.43 26.3984 212.424 26.457 212.424 26.5039C212.424 26.5625 212.465 26.8848 212.547 27.4707V32.3574C212.547 32.5332 212.5 32.7969 212.406 33.1484C212.383 33.2305 212.371 33.3359 212.371 33.4648C212.371 33.8281 212.512 34.1738 212.793 34.502C212.793 34.6074 212.781 34.7246 212.758 34.8535C212.723 35.0293 212.705 35.1816 212.705 35.3105V35.3281C212.705 35.9141 212.729 36.2598 212.775 36.3652C212.834 36.4941 212.863 36.5586 212.863 36.5586L211.773 37.9473L212.793 38.5977C212.688 39.2422 212.635 39.5762 212.635 39.5996C212.635 39.7754 212.717 40.0156 212.881 40.3203C212.998 40.2734 213.273 40.0684 213.707 39.7051L214.779 38.9492L216.432 37.2266L217.082 36.5938L217.504 36.1543L218.576 35.0645C219.186 34.3145 219.572 33.8633 219.736 33.7109C220.275 33.2422 220.732 32.9258 221.107 32.7617C221.271 32.9375 221.5 33.0898 221.793 33.2188C221.816 33.3711 221.828 33.4883 221.828 33.5703C221.828 33.9336 221.682 34.2559 221.389 34.5371C221.225 34.7012 220.967 34.8066 220.615 34.8535C220.369 35.1934 220.17 35.3691 220.018 35.3809C219.701 35.416 219.484 35.4746 219.367 35.5566C219.414 35.7559 219.438 35.9258 219.438 36.0664C219.438 36.2891 219.191 36.5586 218.699 36.875C218.477 37.0156 218.318 37.1328 218.225 37.2266C218.049 37.3906 217.932 37.4902 217.873 37.5254C217.85 37.5605 217.703 37.584 217.434 37.5957C217.387 37.8184 217.328 37.9824 217.258 38.0879C217.223 38.123 216.994 38.2695 216.572 38.5273C215.846 39.1367 215.424 39.4941 215.307 39.5996C215.178 39.7168 215.084 39.875 215.025 40.0742C215.529 40.625 215.934 40.9941 216.238 41.1816C217.105 41.7324 217.545 42.043 217.557 42.1133C217.615 42.3242 217.721 42.4941 217.873 42.623C217.861 42.6816 217.855 42.7344 217.855 42.7812C217.855 42.875 217.92 42.9805 218.049 43.0977C218.424 43.4141 218.623 43.5781 218.646 43.5898C218.881 43.5195 219.062 43.4434 219.191 43.3613C220.223 43.8301 220.938 44.1172 221.336 44.2227L221.283 44.6445C221.506 44.832 221.682 44.9258 221.811 44.9258C221.857 44.9258 222.021 44.873 222.303 44.7676L222.795 44.9785C223.006 45.0488 223.146 45.1367 223.217 45.2422C223.393 45.207 223.545 45.1895 223.674 45.1895C223.709 45.1895 223.75 45.1953 223.797 45.207C223.996 45.2539 224.102 45.2773 224.113 45.2773C224.113 45.2773 224.301 45.2129 224.676 45.084L224.764 45.1719C224.775 45.207 224.781 45.2305 224.781 45.2422C224.781 45.2773 224.688 45.5469 224.5 46.0508C224.359 46.4258 224.066 46.7246 223.621 46.9473C223.492 46.9941 223.211 47.0293 222.777 47.0527C222.426 47.1934 222.227 47.2637 222.18 47.2637C222.098 47.2637 221.846 47.1816 221.424 47.0176C220.709 46.8301 220.258 46.6895 220.07 46.5957C219.707 46.4199 219.473 46.3027 219.367 46.2441C219.402 46.0918 219.42 45.9629 219.42 45.8574C219.42 45.7754 219.396 45.7051 219.35 45.6465C219.244 45.5059 219.121 45.4355 218.98 45.4355C218.969 45.4355 218.951 45.4355 218.928 45.4355C218.518 45.5059 218.307 45.541 218.295 45.541C218.213 45.541 218.084 45.459 217.908 45.2949C217.662 45.084 217.34 44.8438 216.941 44.5742L216.01 43.7832L215.43 43.5898C215.055 43.2031 214.48 42.6992 213.707 42.0781C213.238 41.7617 212.975 41.6035 212.916 41.6035C212.764 41.6035 212.688 41.6973 212.688 41.8848C212.688 41.9785 212.711 42.1074 212.758 42.2715C212.805 42.4824 212.828 43.0566 212.828 43.9941L213.021 45.6113C213.021 45.6113 213.01 45.7051 212.986 45.8926C212.975 45.998 212.963 46.1562 212.951 46.3672C212.787 46.4961 212.693 46.5664 212.67 46.5781C212.646 46.5898 212.389 46.6543 211.896 46.7715C211.428 46.8887 210.994 47.0469 210.596 47.2461L210.42 46.7539V46.7363C210.584 45.8809 210.695 45.0605 210.754 44.2754L210.842 41.7617L211.211 41.8145L211.422 41.3047C211.105 41.082 210.947 40.8887 210.947 40.7246C210.947 40.4902 211.088 40.1387 211.369 39.6699L210.859 39.3887C211.492 39.1543 211.809 38.9316 211.809 38.7207C211.809 38.6035 211.697 38.4746 211.475 38.334C211.041 38.0645 210.812 37.8887 210.789 37.8066C210.789 37.8066 210.795 37.7539 210.807 37.6484C210.83 37.5664 210.842 37.4492 210.842 37.2969V37.2793C210.842 37.2441 210.824 37.0508 210.789 36.6992C210.766 36.5352 210.754 36.3242 210.754 36.0664C210.754 35.9375 210.76 35.7383 210.771 35.4688L211.264 35.082V34.959L210.789 34.625L210.631 31.6895L210.473 30.5469C210.836 30.2305 211.018 29.9727 211.018 29.7734C211.018 29.6094 210.842 29.4102 210.49 29.1758C210.537 29.0234 210.561 28.9414 210.561 28.9297C210.338 27.5352 210.227 26.791 210.227 26.6973C210.227 26.5918 210.297 26.1406 210.438 25.3438L210.385 25.0449C210.373 24.8926 210.25 24.752 210.016 24.623C210.027 24.5293 210.033 24.4531 210.033 24.3945C210.033 24.3359 209.986 24.1895 209.893 23.9551L209.928 23.3574C209.822 22.4551 209.77 21.9746 209.77 21.916C209.77 21.8223 209.775 21.6934 209.787 21.5293C209.799 21.248 209.805 20.9492 209.805 20.6328C209.805 20.375 209.77 20.1934 209.699 20.0879C209.688 20.0645 209.682 20.0527 209.682 20.0527L209.84 19.4199C209.84 19.4199 209.834 19.4082 209.822 19.3848C209.764 19.2793 209.734 19.0977 209.734 18.8398ZM237.297 33.9219L237.859 33.5703C238.035 33.7812 238.158 33.916 238.229 33.9746C238.252 33.998 238.375 34.0566 238.598 34.1504C238.715 34.209 239.219 34.7012 240.109 35.627C240.391 35.9199 240.584 36.1953 240.689 36.4531C240.783 36.6758 240.883 36.9453 240.988 37.2617C241.059 37.4258 241.141 37.6367 241.234 37.8945L241.111 38.0176C240.982 37.9941 240.807 37.9414 240.584 37.8594L239.916 38.1055L239.318 38L238.791 38.1406C238.064 37.625 237.684 37.3672 237.648 37.3672C237.578 37.3672 237.303 37.6074 236.822 38.0879C236.072 37.9473 235.674 37.877 235.627 37.877C235.439 37.877 235.217 37.8945 234.959 37.9297L234.871 37.8594C234.684 37.8828 234.174 37.8945 233.342 37.8945L232.691 37.9648L231.883 38.0352L231.057 38.1758L230.318 38.1582C229.639 38.3691 229.176 38.4922 228.93 38.5273C228.871 38.9258 228.812 39.2012 228.754 39.3535C228.684 39.5293 228.543 39.7227 228.332 39.9336C228.707 40.1914 228.906 40.373 228.93 40.4785C229.047 41.2285 229.158 41.7324 229.264 41.9902L229.58 42.166L229.492 42.8164L230.037 42.957C230.154 43.4375 230.307 43.7598 230.494 43.9238C230.67 44.0762 230.963 44.1816 231.373 44.2402C231.432 44.6035 231.525 44.8203 231.654 44.8906C231.748 44.9609 231.959 45.0078 232.287 45.0312L232.586 45.4883C232.715 45.4648 232.826 45.4531 232.92 45.4531C232.99 45.4531 233.342 45.5996 233.975 45.8926C234.115 45.9629 234.268 45.998 234.432 45.998C234.584 45.998 234.883 45.9277 235.328 45.7871L236.453 45.6641L237.314 45.418C237.725 45.3945 238 45.3594 238.141 45.3125C238.34 45.2305 238.703 45.0254 239.23 44.6973C239.746 44.3809 240.045 44.1641 240.127 44.0469C240.338 43.8008 240.537 43.5195 240.725 43.2031C240.818 43.0625 240.982 42.9922 241.217 42.9922C241.322 42.9922 241.475 43.0684 241.674 43.2207C241.592 43.6426 241.516 43.918 241.445 44.0469C240.953 44.8789 240.643 45.4297 240.514 45.6992C240.361 45.6289 240.232 45.5938 240.127 45.5938C240.057 45.5938 239.863 45.7109 239.547 45.9453C239.336 46.0859 239.072 46.168 238.756 46.1914C238.029 46.3906 237.525 46.5078 237.244 46.543C236.764 46.5898 236.459 46.6309 236.33 46.666C235.967 46.7832 235.779 46.8418 235.768 46.8418L234.73 46.6836L234.115 46.7891L233.816 46.8066C233.535 46.8418 233.318 46.8594 233.166 46.8594C233.014 46.8594 232.586 46.8184 231.883 46.7363C231.66 46.7129 231.549 46.7012 231.549 46.7012L231.18 46.4727C230.301 46.2031 229.814 46.0449 229.721 45.998C229.662 45.9629 229.463 45.7871 229.123 45.4707C229.1 45.4473 228.895 45.3184 228.508 45.084C228.18 44.8848 228.004 44.7324 227.98 44.627L227.664 44.0645C227.617 43.9707 227.418 43.748 227.066 43.3965C227.184 43.209 227.242 43.0684 227.242 42.9746C227.242 42.9395 227.09 42.6113 226.785 41.9902C226.703 41.8262 226.662 41.3281 226.662 40.4961C226.662 40.2383 226.744 39.8164 226.908 39.2305C227.049 38.7734 227.148 38.5098 227.207 38.4395L227.805 37.7363L228.191 36.9102C228.59 36.5352 229.047 36.1133 229.562 35.6445L230.846 34.8535L232.146 33.957L232.621 33.8691L233.957 33.4473L234.818 33.377C235.51 33.1191 235.891 32.9902 235.961 32.9902C236.617 32.9902 237.062 33.3008 237.297 33.9219ZM235.258 36.5586L235.557 36.9277C235.791 36.8809 235.949 36.8516 236.031 36.8398C236.348 36.793 236.664 36.7109 236.98 36.5938L237.982 36.6816C237.994 36.6816 238.023 36.623 238.07 36.5059C238.082 36.4355 238.088 36.377 238.088 36.3301C238.088 36.2246 238.018 36.0957 237.877 35.9434C237.854 35.9199 237.795 35.8496 237.701 35.7324C237.42 35.3574 237.244 35.1816 237.174 35.2051L236.594 34.9238C236.523 34.8887 236.412 34.7539 236.26 34.5195C235.92 34.4727 235.34 34.4492 234.52 34.4492L234.168 34.4316L233.57 34.7832C233.547 34.8066 233.225 34.8887 232.604 35.0293C232.111 35.2051 231.678 35.375 231.303 35.5391C231.221 35.5977 230.992 35.7969 230.617 36.1367C230.547 36.1953 230.412 36.3008 230.213 36.4531V36.5586L230.248 36.5938L231.531 37.1035L231.918 37.4902L232.604 36.6641C232.662 36.6172 232.727 36.5938 232.797 36.5938C232.832 36.5938 233.119 36.6699 233.658 36.8223C233.67 36.8223 233.682 36.8223 233.693 36.8223C233.846 36.8223 234.18 36.7637 234.695 36.6465C234.812 36.6113 235 36.582 235.258 36.5586ZM244.979 34.5195C245.072 34.0625 245.23 33.834 245.453 33.834H245.471L246.332 33.8867H246.367C247.023 33.793 247.398 33.7402 247.492 33.7285C247.492 33.5176 247.492 33.377 247.492 33.3066C247.492 32.2051 247.469 31.3027 247.422 30.5996C247.398 30.2949 247.328 30.0195 247.211 29.7734L247.035 29.4043C246.988 29.3105 246.965 29.2109 246.965 29.1055C246.965 28.9297 247.105 28.7188 247.387 28.4727C247.82 28.0742 248.371 27.8105 249.039 27.6816C249.191 27.3652 249.355 27.207 249.531 27.207C249.602 27.207 249.66 27.2363 249.707 27.2949C249.871 27.4707 249.953 27.6992 249.953 27.9805C249.953 27.9922 249.9 28.918 249.795 30.7578C249.654 31.2383 249.566 31.5195 249.531 31.6016C249.484 31.7656 249.35 31.9355 249.127 32.1113C249.127 32.3457 249.162 32.5742 249.232 32.7969H249.637L249.531 33.6934C249.824 33.7168 250.434 33.8574 251.359 34.1152C251.418 34.127 251.617 34.1328 251.957 34.1328C252.168 34.1328 252.514 34.0625 252.994 33.9219L254.154 33.8164C254.752 33.582 255.104 33.4648 255.209 33.4648C255.361 33.4648 255.549 33.4824 255.771 33.5176C255.748 33.8457 255.713 34.0801 255.666 34.2207C255.619 34.3965 255.25 34.6953 254.559 35.1172C254.395 35.2109 254.277 35.2988 254.207 35.3809C254.031 35.5918 253.938 35.6973 253.926 35.6973C253.867 35.7441 253.727 35.7676 253.504 35.7676C253.328 35.7676 253.199 35.7441 253.117 35.6973L252.396 35.3105L251.957 35.2051L251.43 34.8184L250.533 35.5039L249.76 35.3984C249.701 35.3984 249.584 35.457 249.408 35.5742C249.502 36.1367 249.549 36.6113 249.549 36.998C249.549 37.1855 249.543 37.4609 249.531 37.8242C249.098 37.8945 248.881 38.0703 248.881 38.3516C248.881 38.457 248.904 38.5859 248.951 38.7383C249.209 38.7617 249.426 38.7969 249.602 38.8438L249.566 41.041C249.391 40.9941 249.244 40.9707 249.127 40.9707C248.916 40.9707 248.811 41.0586 248.811 41.2344C248.811 41.375 248.863 41.5449 248.969 41.7441C249.133 41.6387 249.273 41.5859 249.391 41.5859C249.566 41.5859 249.654 41.6973 249.654 41.9199L249.602 42.623V42.6582C249.625 43.1387 249.643 43.4844 249.654 43.6953C249.678 43.918 249.748 44.1406 249.865 44.3633L250.076 44.7324C250.1 44.7793 250.111 44.8496 250.111 44.9434C250.111 45.0488 250.1 45.1836 250.076 45.3477C250.439 45.5586 250.844 45.6641 251.289 45.6641C251.664 45.6641 252.039 45.5703 252.414 45.3828C252.719 45.2188 252.883 45.125 252.906 45.1016L253.873 44.2227C254.354 43.8242 254.646 43.625 254.752 43.625C254.857 43.625 255.004 43.6777 255.191 43.7832C255.156 44.0059 255.133 44.1582 255.121 44.2402C255.039 44.8496 254.957 45.207 254.875 45.3125C254.793 45.4062 254.436 45.5527 253.803 45.752C253.322 45.998 252.596 46.2852 251.623 46.6133L251.025 46.8066C250.627 47.0293 250.398 47.1406 250.34 47.1406C250.234 47.1406 250.117 47.0352 249.988 46.8242L249.672 46.7363L249.479 47.1758C249.314 47.1992 249.174 47.2109 249.057 47.2109C248.752 47.2109 248.389 47.0117 247.967 46.6133C247.779 46.4258 247.627 46.2324 247.51 46.0332C247.498 46.0215 247.451 45.8691 247.369 45.5762C247.24 45.1895 247.176 44.9668 247.176 44.9082C247.176 44.8027 247.188 44.6328 247.211 44.3984C247.234 44.2109 247.246 43.8184 247.246 43.2207C247.258 42.834 247.363 42.541 247.562 42.3418C247.492 42.1191 247.457 41.8496 247.457 41.5332C247.398 40.9941 247.363 39.9688 247.352 38.457C247.633 38.2812 247.773 38.1113 247.773 37.9473C247.773 37.8535 247.762 37.7422 247.738 37.6133L247.229 37.4902L247.193 37.332V37.3145C247.193 37.2559 247.211 37.1328 247.246 36.9453C247.316 36.6406 247.352 36.1133 247.352 35.3633C246.871 35.2578 246.52 35.2051 246.297 35.2051C246.227 35.2051 245.922 35.2402 245.383 35.3105L245.014 35.3457C244.686 35.4512 244.51 35.5039 244.486 35.5039C244.322 35.5039 244.24 35.4277 244.24 35.2754C244.24 35.041 244.486 34.7891 244.979 34.5195Z" fill="white"/>
<path d="M0.000286622 18.4996V55.4988L34.4984 73.9986V61.4584L11.6925 49.2287V24.7684L0 18.4982L0.000286622 18.4996Z" fill="black"/>
<path d="M68.9994 18.4996L57.3069 24.7697V49.23L34.501 61.4598V74L68.9991 55.5002V18.501L68.9994 18.4996Z" fill="#999999"/>
<path d="M34.5012 0L0.00311279 18.4999L11.6956 24.77L34.5015 12.5402L57.3074 24.77L68.9999 18.4999L34.5018 0H34.5012Z" fill="#333333"/>
<path d="M34.5013 12.5403V21.3544L49.0892 29.1771V44.8232L57.3072 49.2303V24.77L34.5013 12.5403V12.5403Z" fill="black"/>
<path d="M34.5013 12.5403L11.6954 24.77V49.2303L19.9134 44.8232V29.1771L34.5013 21.3544V12.5403V12.5403Z" fill="#999999"/>
<path d="M19.9114 44.8232L11.6934 49.2303L34.4993 61.46L57.3052 49.2303L49.0871 44.8232L34.4993 52.6458L19.9114 44.8232V44.8232Z" fill="#333333"/>
<path d="M19.9114 29.1779V44.824L34.4996 52.647V37.0008L19.9114 29.1779Z" fill="black"/>
<path d="M49.0883 29.1779L34.5002 37.0008V52.647L49.0883 44.824V29.1779Z" fill="#999999"/>
<path d="M34.5014 21.3539L19.9132 29.1768L34.5014 36.9997L49.0895 29.1768L34.5014 21.3539Z" fill="#333333"/>
</svg>
